<svg width="28" height="28" viewBox="0 0 28 28" fill="none" xmlns="http://www.w3.org/2000/svg">
<mask id="mask0_4821_138" style="mask-type:alpha" maskUnits="userSpaceOnUse" x="0" y="0" width="28" height="28">
<rect width="28" height="28" fill="#C4C4C4"/>
</mask>
<g mask="url(#mask0_4821_138)">
<path d="M24.2083 9.43374H19.6233L20.0573 4.44974C20.0993 3.96907 19.7423 3.54558 19.2616 3.50241C18.7751 3.46741 18.3562 3.81741 18.3142 4.29924L17.8674 9.43257H10.4941L10.9257 4.4509C10.9689 3.96906 10.6107 3.54558 10.1324 3.50241C9.64242 3.46741 9.22592 3.81741 9.18392 4.29924L8.73825 9.43257H4.12058C3.63758 9.43257 3.24558 9.82574 3.24558 10.3076C3.24558 10.7894 3.63758 11.1826 4.12058 11.1826H8.58659L7.94492 18.5641H3.20825C2.72525 18.5641 2.33325 18.9561 2.33325 19.4391C2.33325 19.9221 2.72525 20.3141 3.20825 20.3141H7.79325L7.35925 25.2981C7.31725 25.7787 7.67425 26.2022 8.15492 26.2454L8.23192 26.2489C8.68108 26.2489 9.06259 25.9047 9.10225 25.4486L9.54908 20.3152H16.9224L16.4908 25.2969C16.4488 25.7787 16.8058 26.2022 17.2864 26.2454L17.3634 26.2489C17.8126 26.2489 18.1941 25.9047 18.2337 25.4486L18.6794 20.3152H23.2959C23.7778 20.3152 24.1709 19.9221 24.1709 19.4402C24.1709 18.9584 23.7778 18.5652 23.2959 18.5652H18.8299L19.4716 11.1837H24.2083C24.6913 11.1837 25.0833 10.7917 25.0833 10.3087C25.0833 9.82574 24.6913 9.43374 24.2083 9.43374ZM17.0741 18.5641H9.70075L10.3424 11.1837H17.7157L17.0741 18.5641Z" fill="black"/>
</g>
</svg>
