<svg width="28" height="28" viewBox="0 0 28 28" fill="none" xmlns="http://www.w3.org/2000/svg">
<mask id="mask0_4821_159" style="mask-type:alpha" maskUnits="userSpaceOnUse" x="0" y="0" width="28" height="28">
<rect width="28" height="28" fill="#C4C4C4"/>
</mask>
<g mask="url(#mask0_4821_159)">
<path d="M18.9584 11.6667C17.8326 11.6667 16.9167 12.5849 16.9167 13.7084C16.9167 14.8319 17.8314 15.75 18.9584 15.75C20.0831 15.75 21.0001 14.833 21.0001 13.7084C21.0001 12.5837 20.0831 11.6667 18.9584 11.6667ZM18.9584 14.5834C18.4754 14.5834 18.0834 14.1914 18.0834 13.7084C18.0834 13.2265 18.4766 12.8334 18.9584 12.8334C19.4402 12.8334 19.8334 13.2254 19.8334 13.7084C19.8334 14.1902 19.4414 14.5834 18.9584 14.5834ZM13.7084 11.6667C12.5814 11.6667 11.6667 12.5849 11.6667 13.7084C11.6667 14.8319 12.5826 15.75 13.7084 15.75C14.8342 15.75 15.7501 14.833 15.7501 13.7084C15.7501 12.5837 14.8354 11.6667 13.7084 11.6667ZM13.7084 14.5834C13.2254 14.5834 12.8334 14.1914 12.8334 13.7084C12.8334 13.2265 13.2266 12.8334 13.7084 12.8334C14.1902 12.8334 14.5834 13.2254 14.5834 13.7084C14.5834 14.1902 14.1914 14.5834 13.7084 14.5834ZM8.45842 11.6667C7.33258 11.6667 6.41675 12.5849 6.41675 13.7084C6.41675 14.8319 7.33258 15.75 8.45842 15.75C9.58308 15.75 10.5001 14.833 10.5001 13.7084C10.5001 12.5837 9.58191 11.6667 8.45842 11.6667ZM8.45842 14.5834C7.97542 14.5834 7.58342 14.1914 7.58342 13.7084C7.58342 13.2265 7.97658 12.8334 8.45842 12.8334C8.94025 12.8334 9.33342 13.2254 9.33342 13.7084C9.33342 14.1902 8.94142 14.5834 8.45842 14.5834Z" fill="black"/>
<path d="M13.7084 26.25C6.79242 26.25 1.16675 20.6244 1.16675 13.7084C1.16675 6.79235 6.79242 1.16669 13.7084 1.16669C20.6244 1.16669 26.2501 6.79235 26.2501 13.7084C26.2501 20.6244 20.6244 26.25 13.7084 26.25ZM13.7084 2.91669C7.75842 2.91669 2.91675 7.75835 2.91675 13.7084C2.91675 19.6584 7.75842 24.5 13.7084 24.5C19.6584 24.5 24.5001 19.6584 24.5001 13.7084C24.5001 7.75835 19.6584 2.91669 13.7084 2.91669Z" fill="black"/>
</g>
</svg>
