<svg width="28" height="28" viewBox="0 0 28 28" fill="none" xmlns="http://www.w3.org/2000/svg">
<mask id="mask0_4821_142" style="mask-type:alpha" maskUnits="userSpaceOnUse" x="0" y="0" width="28" height="28">
<rect width="28" height="28" fill="#C4C4C4"/>
</mask>
<g mask="url(#mask0_4821_142)">
<path d="M25.314 19.2943C25.2907 19.2757 22.8173 17.381 22.8605 12.2593C22.8838 9.30533 21.9131 6.68032 20.1223 4.86848C18.5181 3.24332 16.3458 2.34498 14.0067 2.33331H13.9915C11.6535 2.34498 9.48115 3.24333 7.87581 4.86966C6.08615 6.68149 5.11315 9.30533 5.13882 12.2593C5.18199 17.311 2.78215 19.2208 2.68648 19.2943C2.38315 19.5195 2.25948 19.9127 2.37731 20.272C2.49631 20.6313 2.8323 20.8728 3.20797 20.8728H8.94799C9.06699 23.5678 11.2778 25.7262 13.9996 25.7262C16.7215 25.7262 18.93 23.5678 19.0478 20.8728H24.7901C25.1658 20.8728 25.5018 20.6325 25.6185 20.2732C25.7386 19.915 25.615 19.5206 25.3117 19.2955L25.314 19.2943ZM14.0008 23.9727C12.245 23.9727 10.8158 22.5995 10.7015 20.8717H17.3001C17.1835 22.5983 15.7566 23.975 14.0008 23.975V23.9727ZM5.11082 19.1217C5.97415 17.801 6.91682 15.589 6.88882 12.243C6.86782 9.72298 7.64015 7.59732 9.12065 6.09815C10.3958 4.80665 12.1306 4.09148 14.0008 4.08331C15.871 4.09265 17.6023 4.80666 18.8775 6.09933C20.3591 7.59849 21.1326 9.72299 21.1116 12.2442C21.0836 15.5902 22.0275 17.8033 22.8908 19.1228H5.11082V19.1217Z" fill="black"/>
</g>
</svg>
