<svg width="24" height="24" viewBox="0 0 24 24" fill="none" xmlns="http://www.w3.org/2000/svg">
<mask id="mask0_4821_281" style="mask-type:alpha" maskUnits="userSpaceOnUse" x="0" y="0" width="24" height="24">
<rect width="24" height="24" fill="#C4C4C4"/>
</mask>
<g mask="url(#mask0_4821_281)">
<path d="M17.53 7.21975L12.53 2.21975C12.237 1.92675 11.762 1.92675 11.47 2.21975L6.47001 7.21975C6.17601 7.51275 6.17601 7.98775 6.47001 8.27975C6.76401 8.57175 7.23701 8.57375 7.53001 8.27975L11.25 4.55975V14.7498C11.25 15.1638 11.586 15.4998 12 15.4998C12.414 15.4998 12.75 15.1638 12.75 14.7498V4.55975L16.47 8.27975C16.616 8.42675 16.808 8.49975 17 8.49975C17.192 8.49975 17.384 8.42775 17.53 8.27975C17.823 7.98675 17.823 7.51275 17.53 7.21975Z" fill="#536471"/>
<path d="M19.708 21.6938H4.29201C3.02801 21.6938 2 20.6658 2 19.4018V13.7498C2 13.3358 2.336 12.9998 2.75 12.9998C3.164 12.9998 3.5 13.3358 3.5 13.7498V19.4018C3.5 19.8388 3.85501 20.1938 4.29201 20.1938H19.708C20.145 20.1938 20.5 19.8388 20.5 19.4018V13.7498C20.5 13.3358 20.836 12.9998 21.25 12.9998C21.664 12.9998 22 13.3358 22 13.7498V19.4018C22 20.6658 20.972 21.6938 19.708 21.6938Z" fill="#536471"/>
</g>
</svg>
